<?xml version="1.0" encoding="UTF-8" standalone="no"?>
<svg
   width="42.128716mm"
   height="37.516933mm"
   viewBox="-19 -40 42.128716 37.516934"
   version="1.1"
   id="svg6"
   sodipodi:docname="design_b.svg"
   inkscape:version="1.1.2 (0a00cf5339, 2022-02-04)"
   xmlns:inkscape="http://www.inkscape.org/namespaces/inkscape"
   xmlns:sodipodi="http://sodipodi.sourceforge.net/DTD/sodipodi-0.dtd"
   xmlns:xlink="http://www.w3.org/1999/xlink"
   xmlns="http://www.w3.org/2000/svg"
   xmlns:svg="http://www.w3.org/2000/svg"
   xmlns:rdf="http://www.w3.org/1999/02/22-rdf-syntax-ns#"
   xmlns:cc="http://creativecommons.org/ns#"
   xmlns:dc="http://purl.org/dc/elements/1.1/">
  <defs
     id="defs10" />
  <sodipodi:namedview
     id="namedview8"
     pagecolor="#ffffff"
     bordercolor="#666666"
     borderopacity="1.0"
     inkscape:pageshadow="2"
     inkscape:pageopacity="0.0"
     inkscape:pagecheckerboard="0"
     inkscape:document-units="mm"
     showgrid="false"
     inkscape:zoom="5.8324218"
     inkscape:cx="83.58449"
     inkscape:cy="92.157259"
     inkscape:window-width="2806"
     inkscape:window-height="1736"
     inkscape:window-x="74"
     inkscape:window-y="27"
     inkscape:window-maximized="1"
     inkscape:current-layer="text1596"
     fit-margin-top="0"
     fit-margin-left="0"
     fit-margin-right="0"
     fit-margin-bottom="0" />
  <title
     id="title2">OpenSCAD Model</title>
  <metadata
     id="metadata827">
    <rdf:RDF>
      <cc:Work
         rdf:about="">
        <dc:title>OpenSCAD Model</dc:title>
      </cc:Work>
    </rdf:RDF>
  </metadata>
  <g
     inkscape:groupmode="layer"
     id="layer2"
     inkscape:label="design"
     transform="translate(1.0078124,1.0103228)"
     style="display:inline">
    <path
       id="path4-3"
       style="display:inline;opacity:1;fill:#00a95c;fill-opacity:1;stroke:none;stroke-width:0.1;stroke-miterlimit:4;stroke-dasharray:0.1, 0.1;stroke-dashoffset:0;stroke-opacity:1"
       d="m -6.2951127,-41.005859 c 9.4761972,0.666037 18.9432297,1.456898 28.4160147,2.169921 10e-7,9.32487 0,18.64974 0,27.97461 -7.409086,3.1446535 -15.1416959,5.6307803 -23.10619213,6.8778935 -4.62621077,0.6807289 -9.54988987,0.8835481 -13.95354187,-0.940873 -2.494076,-1.0659146 -4.837961,-3.2464726 -5.006672,-6.1030365 -0.137123,-2.439117 0.0025,-4.885359 -0.04833,-7.327733 0.0277,-4.488375 -0.08192,-8.982471 0.07784,-13.467101 0.411288,-3.780047 3.318317,-6.969884 6.855418,-8.1845 2.151582,-0.811456 4.4799654,-1.039747 6.7654703,-0.999181 z m -2.8261719,28.777343 c -0.798022,0.195541 -0.538711,1.575897 0.310547,1.351563 0.758057,-0.137944 0.719348,-1.318109 -0.0625,-1.363281 -0.08325,-0.0094 -0.16551,0.0039 -0.248047,0.01172 z" />
    <text
       xml:space="preserve"
       style="font-style:normal;font-weight:normal;font-size:4.93889px;line-height:1.25;font-family:sans-serif;fill:#2e2a2b;fill-opacity:1;stroke:none;stroke-width:0.264583"
       x="-14.620353"
       y="-19.162809"
       id="text3882"
       transform="scale(-1,1)"><tspan
         sodipodi:role="line"
         id="tspan3880"
         style="font-style:normal;font-variant:normal;font-weight:normal;font-stretch:normal;font-size:4.93889px;font-family:cabin;-inkscape-font-specification:cabin;fill:#2e2a2b;fill-opacity:1;stroke-width:0.264583"
         x="-14.620353"
         y="-19.162809" /></text>
    <g
       id="g12"
       transform="matrix(0.00957016,0,0,-0.00957016,-15.955329,-21.2776)">
      <path
         d="M 311.844,989.344 H 204.266 v 67.376 H 488.973 V 989.344 H 381.391 V 676.391 h -69.547 v 312.953"
         style="fill:#2e2a2b;fill-opacity:1;fill-rule:nonzero;stroke:none"
         id="path14"
         inkscape:connector-curvature="0" />
      <path
         d="m 527.977,1056.72 h 69.539 V 906.219 h 173.855 v 150.501 h 69.555 V 676.391 H 771.371 V 841.016 H 597.516 V 676.391 h -69.539 v 380.329"
         style="fill:#2e2a2b;fill-opacity:1;fill-rule:nonzero;stroke:none"
         id="path16"
         inkscape:connector-curvature="0" />
      <path
         d="m 952.953,714.148 c -26.441,30.247 -39.656,71.993 -39.656,125.235 V 1056.72 H 982.84 V 857.313 c 0,-26.446 2.351,-48.446 7.058,-66.004 4.707,-17.579 13.492,-31.243 26.362,-41.028 12.85,-9.773 31.05,-14.668 54.61,-14.668 23.52,0 41.73,4.895 54.58,14.668 12.86,9.785 21.66,23.449 26.36,41.028 4.71,17.558 7.06,39.558 7.06,66.004 v 199.407 h 69.54 V 839.383 c 0,-53.242 -13.22,-94.988 -39.64,-125.235 -26.46,-30.238 -65.76,-45.359 -117.9,-45.359 -52.17,0 -91.479,15.121 -117.917,45.359"
         style="fill:#2e2a2b;fill-opacity:1;fill-rule:nonzero;stroke:none"
         id="path18"
         inkscape:connector-curvature="0" />
      <path
         d="m 1300.79,1056.72 h 68.45 L 1531.7,811.133 v 245.587 h 69.54 V 676.391 h -57.05 L 1370.33,937.176 V 676.391 h -69.54 v 380.329"
         style="fill:#2e2a2b;fill-opacity:1;fill-rule:nonzero;stroke:none"
         id="path20"
         inkscape:connector-curvature="0" />
      <path
         d="m 1819.42,738.328 c 36.22,0 63.84,11.309 82.86,33.965 19.01,22.629 28.53,54.062 28.53,94.258 0,40.207 -9.52,71.633 -28.53,94.269 -19.02,22.625 -46.64,33.953 -82.86,33.953 h -72.8 V 738.328 Z m -142.34,318.392 h 142.34 c 36.22,0 68.54,-7.61 96.99,-22.83 28.43,-15.21 50.61,-37.132 66.55,-65.738 15.94,-28.621 23.91,-62.48 23.91,-101.601 0,-39.11 -7.97,-72.988 -23.91,-101.602 -15.94,-28.621 -38.12,-50.527 -66.55,-65.738 -28.45,-15.223 -60.77,-22.82 -96.99,-22.82 h -142.34 v 380.329"
         style="fill:#2e2a2b;fill-opacity:1;fill-rule:nonzero;stroke:none"
         id="path22"
         inkscape:connector-curvature="0" />
      <path
         d="m 2061.58,1056.72 h 243.4 v -67.376 h -172.23 v -80.957 h 133.66 v -67.371 h -133.66 v -97.258 h 177.68 v -67.367 h -248.85 v 380.329"
         style="fill:#2e2a2b;fill-opacity:1;fill-rule:nonzero;stroke:none"
         id="path24"
         inkscape:connector-curvature="0" />
      <path
         d="m 2486.01,875.789 c 51.08,0 76.61,20.656 76.61,61.934 0,19.922 -5.8,35.05 -17.38,45.371 -11.59,10.324 -30.43,15.488 -56.51,15.488 h -53.78 V 875.789 Z M 2365.4,1056.72 h 139.09 c 40.55,0 72.54,-9.7 95.9,-29.08 23.37,-19.37 35.05,-48.081 35.05,-86.109 0,-26.445 -5.63,-48.086 -16.85,-64.929 -11.24,-16.836 -27.17,-30.332 -47.81,-40.469 l 85.85,-159.742 h -77.71 l -73.35,141.265 h -2.71 -67.91 V 676.391 h -69.55 v 380.329"
         style="fill:#2e2a2b;fill-opacity:1;fill-rule:nonzero;stroke:none"
         id="path26"
         inkscape:connector-curvature="0" />
      <path
         d="m 2748.99,1056.72 h 225.47 l -11.95,-67.376 h -155.4 l -14.66,-80.957 h 120.62 l -11.96,-67.371 H 2780.49 L 2751.7,676.391 h -69.55 l 66.84,380.329"
         style="fill:#2e2a2b;fill-opacity:1;fill-rule:nonzero;stroke:none"
         id="path28"
         inkscape:connector-curvature="0" />
      <path
         d="m 3020.79,1056.72 h 69.54 l -54.89,-312.962 h 131.26 l -11.95,-67.367 h -200.8 l 66.84,380.329"
         style="fill:#2e2a2b;fill-opacity:1;fill-rule:nonzero;stroke:none"
         id="path30"
         inkscape:connector-curvature="0" />
      <path
         d="m 3259.63,844.813 -89.11,211.907 h 73.9 l 61.93,-152.13 113.02,152.13 h 73.89 l -164.08,-211.907 -29.9,-168.422 h -68.99 l 29.34,168.422"
         style="fill:#2e2a2b;fill-opacity:1;fill-rule:nonzero;stroke:none"
         id="path32"
         inkscape:connector-curvature="0" />
      <path
         d="m 2667.32,586.172 h 69.54 L 2670.03,205.84 h -69.54 l 66.83,380.332"
         style="fill:#fab20b;fill-opacity:1;fill-rule:nonzero;stroke:none"
         id="path34"
         inkscape:connector-curvature="0" />
      <path
         d="m 2939.83,586.172 h 69.55 L 2942.54,205.84 H 2873 l 66.83,380.332"
         style="fill:#fab20b;fill-opacity:1;fill-rule:nonzero;stroke:none"
         id="path36"
         inkscape:connector-curvature="0" />
      <path
         d="m 3214.91,586.172 h 69.55 L 3217.62,205.84 h -69.54 l 66.83,380.332"
         style="fill:#fab20b;fill-opacity:1;fill-rule:nonzero;stroke:none"
         id="path38"
         inkscape:connector-curvature="0" />
      <path
         d="m 2831.31,1528.05 h 69.55 l -66.83,-380.33 h -69.54 l 66.82,380.33"
         style="fill:#fab20b;fill-opacity:1;fill-rule:nonzero;stroke:none"
         id="path40"
         inkscape:connector-curvature="0" />
      <path
         d="m 3103.78,1528.05 h 69.54 l -66.83,-380.33 h -69.55 l 66.84,380.33"
         style="fill:#fab20b;fill-opacity:1;fill-rule:nonzero;stroke:none"
         id="path42"
         inkscape:connector-curvature="0" />
      <path
         d="m 3379.19,1528.05 h 69.56 l -66.84,-380.33 h -69.54 l 66.82,380.33"
         style="fill:#fab20b;fill-opacity:1;fill-rule:nonzero;stroke:none"
         id="path44"
         inkscape:connector-curvature="0" />
    </g>
    <g
       aria-label="TFSLOT01"
       id="text1596"
       style="font-size:4.98937px;line-height:1.25;fill:#2e2a2b;stroke-width:0.311836">
      <path
         d="m -13.012576,-23.271807 v -2.873877 h -0.987895 v -0.618682 h 2.61443 v 0.618682 h -0.987896 v 2.873877 z"
         style="font-weight:bold;font-family:cabin;-inkscape-font-specification:'cabin Bold'"
         id="path1152" />
      <path
         d="m -10.927025,-23.271807 v -3.492559 h 2.1504188 v 0.618682 h -1.5117788 v 0.743416 h 1.1675123 v 0.618682 h -1.1675123 v 1.511779 z"
         style="font-weight:bold;font-family:cabin;-inkscape-font-specification:'cabin Bold'"
         id="path1154" />
      <path
         d="m -7.2947651,-23.201956 q -0.2120482,0 -0.4365699,-0.04241 -0.2245216,-0.03992 -0.4166124,-0.09729 -0.1920907,-0.05987 -0.3043515,-0.114755 l 0.074841,-0.678555 q 0.174628,0.08482 0.364224,0.157165 0.1895961,0.07235 0.3891709,0.117251 0.1995748,0.0449 0.4041389,0.0449 0.2544579,0 0.4091284,-0.09979 0.1546704,-0.09979 0.1546704,-0.304352 0,-0.157165 -0.087314,-0.251963 -0.087314,-0.09729 -0.2669313,-0.172133 -0.1796173,-0.07734 -0.4590221,-0.174628 -0.2794047,-0.09729 -0.5014316,-0.219533 -0.222027,-0.124734 -0.3517506,-0.31433 -0.1297236,-0.189596 -0.1297236,-0.483969 0,-0.289383 0.142197,-0.513905 0.1421971,-0.227016 0.4240965,-0.354245 0.284394,-0.129724 0.7059958,-0.129724 0.3193197,0 0.6087031,0.07235 0.2893835,0.06985 0.4939476,0.152176 l -0.064862,0.653607 q -0.2943728,-0.132218 -0.55382,-0.199575 -0.2569526,-0.06985 -0.5238839,-0.06985 -0.2794047,0 -0.4315805,0.0923 -0.1521757,0.0923 -0.1521757,0.27691 0,0.147186 0.084819,0.236995 0.084819,0.08981 0.2419844,0.15467 0.1571651,0.06237 0.3766974,0.132219 0.3791921,0.119744 0.6361447,0.264436 0.2594472,0.142197 0.3891708,0.346761 0.1322183,0.20207 0.1322183,0.501432 0,0.149681 -0.047399,0.326804 -0.047399,0.174628 -0.1871014,0.331793 -0.1397023,0.157165 -0.4091283,0.259447 -0.2669313,0.09979 -0.7084905,0.09979 z"
         style="font-weight:bold;font-family:cabin;-inkscape-font-specification:'cabin Bold'"
         id="path1156" />
      <path
         d="m -5.4137731,-23.271807 v -3.492559 h 0.6386394 v 2.923771 h 1.4369385 v 0.568788 z"
         style="font-weight:bold;font-family:cabin;-inkscape-font-specification:'cabin Bold'"
         id="path1158" />
      <path
         d="m -1.4721825,-23.201956 q -0.498937,0 -0.8881079,-0.224521 -0.3891708,-0.227017 -0.6111978,-0.63365 -0.2220269,-0.409128 -0.2220269,-0.957959 0,-0.548831 0.2220269,-0.955465 0.222027,-0.409128 0.6111978,-0.633649 0.3891709,-0.227017 0.8881079,-0.227017 0.49893696,0 0.88810781,0.227017 0.38917085,0.224521 0.6111978,0.633649 0.22202696,0.406634 0.22202696,0.955465 0,0.548831 -0.22202696,0.957959 -0.22202695,0.406633 -0.6111978,0.63365 -0.38917085,0.224521 -0.88810781,0.224521 z m 0,-0.618681 q 0.3492559,0 0.58375624,-0.154671 0.23450039,-0.15467 0.35175058,-0.424096 0.11725019,-0.271921 0.11725019,-0.618682 0,-0.346761 -0.11725019,-0.616187 -0.11725019,-0.271921 -0.35175058,-0.426591 -0.23450034,-0.154671 -0.58375624,-0.154671 -0.3492559,0 -0.5837563,0.154671 -0.2345004,0.15467 -0.3517506,0.426591 -0.1172502,0.269426 -0.1172502,0.616187 0,0.346761 0.1172502,0.618682 0.1172502,0.269426 0.3517506,0.424096 0.2345004,0.154671 0.5837563,0.154671 z"
         style="font-weight:bold;font-family:cabin;-inkscape-font-specification:'cabin Bold'"
         id="path1160" />
      <path
         d="m 1.4216406,-23.271807 v -2.873877 H 0.43374539 v -0.618682 H 3.0481752 v 0.618682 H 2.06028 v 2.873877 z"
         style="font-weight:bold;font-family:cabin;-inkscape-font-specification:'cabin Bold'"
         id="path1162" />
      <path
         d="m 4.8343543,-23.201956 q -0.4415592,0 -0.7733523,-0.229511 -0.3292984,-0.232005 -0.5139051,-0.646123 -0.1846067,-0.416612 -0.1846067,-0.970432 0,-0.528874 0.1846067,-0.930518 0.1846067,-0.404139 0.5139051,-0.62866 0.3317931,-0.227017 0.7733523,-0.227017 0.4440539,0 0.7733524,0.227017 0.3317931,0.227016 0.5139051,0.631155 0.1846066,0.401644 0.1846066,0.928023 0,0.55382 -0.1846066,0.970432 -0.182112,0.414118 -0.5139051,0.646123 -0.3292985,0.229511 -0.7733524,0.229511 z m 0,-0.573777 q 0.2369951,0 0.4240965,-0.129724 0.189596,-0.129723 0.2993622,-0.409128 0.1097661,-0.281899 0.1097661,-0.733437 0,-0.621177 -0.2394898,-0.920539 -0.236995,-0.301857 -0.593735,-0.301857 -0.3542452,0 -0.593735,0.299362 -0.2394897,0.296868 -0.2394897,0.923034 0,0.446548 0.1097661,0.728448 0.1097661,0.279404 0.2968675,0.411623 0.1895961,0.132218 0.4265911,0.132218 z"
         style="font-weight:bold;font-family:cabin;-inkscape-font-specification:'cabin Bold'"
         id="path1164" />
      <path
         d="m 7.3140675,-23.271807 v -2.589483 q -0.097293,0.06237 -0.2070589,0.109766 -0.1072714,0.0474 -0.2320057,0.06985 l -0.054883,-0.538852 q 0.1072714,-0.02245 0.2394897,-0.107272 0.1322183,-0.08482 0.2444791,-0.199575 0.1122609,-0.11725 0.1596599,-0.236995 h 0.4889582 v 3.492559 z"
         style="font-weight:bold;font-family:cabin;-inkscape-font-specification:'cabin Bold'"
         id="path1166" />
    </g>
    <g
       id="g23756"
       transform="matrix(1.0322514,0,0,1.0322514,-5.6450249,-0.04269022)">
      <rect
         style="opacity:1;fill:#58ffb3;fill-opacity:1;stroke:none;stroke-width:0.110851;stroke-miterlimit:4;stroke-dasharray:0.110851, 0.110851;stroke-dashoffset:0;stroke-opacity:1"
         id="rect23210"
         width="13"
         height="13"
         x="-0.0078123999"
         y="-21.010323"
         rx="2.0874662"
         ry="2.3546362" />
      <image
         width="13"
         height="13"
         preserveAspectRatio="none"
         xlink:href="qr_web_tfslot01.png"
         id="image22006"
         x="-0.0078123999"
         y="-21.010323" />
    </g>
  </g>
  <g
     inkscape:groupmode="layer"
     id="g940"
     inkscape:label="CROP"
     style="display:inline"
     transform="translate(1.0078124,1.0103228)"
     sodipodi:insensitive="true">
    <path
       id="path938"
       style="fill:none;fill-opacity:1;stroke:#000000;stroke-width:0.1;stroke-miterlimit:4;stroke-dasharray:none;stroke-opacity:1"
       d="m -6.7365355,-39.423291 c 0.1395677,5.93e-4 0.2788417,0.0023 0.4180628,0.0052 8.9568405,0.627039 17.9056217,1.378005 26.8593407,2.053104 v 25.460977 c -6.805955,2.7967572 -13.8385338,5.0417071 -21.11292257,6.2600842 -3.79119283,0.5852689 -7.69999563,0.894162 -11.49800743,0.00265 -2.459313,-0.5980959 -5.139034,-1.8863045 -6.067845,-4.4121362 -0.48872,-1.582896 -0.171231,-3.272666 -0.262517,-4.903059 0.02246,-5.424132 -0.04458,-10.851321 0.03411,-16.273425 0.16968,-3.215966 2.525144,-5.996642 5.470467,-7.131347 1.940287,-0.815806 4.0657936,-1.070823 6.1593145,-1.061951 z m -2.1946976,26.121919 a 1.75,1.75 0 0 0 -1.7497659,1.749763 1.75,1.75 0 0 0 1.7497659,1.7502825 1.75,1.75 0 0 0 1.7502796,-1.7502825 1.75,1.75 0 0 0 -1.7502796,-1.749763 z" />
  </g>
  <g
     inkscape:groupmode="layer"
     id="layer1"
     inkscape:label="projection"
     style="display:inline;opacity:0.465263"
     transform="translate(1.0078124,1.0103228)"
     sodipodi:insensitive="true">
    <path
       d="m -18.910499,-10.910397 0.11824,0.6257 0.19655,0.6060011 0.274081,0.5845 0.350533,0.5606 0.425601,0.5343 0.49899,0.5051 0.57041,0.4732 0.63957,0.4383 0.70622,0.4006 0.77008,0.3603 0.83089,0.3179 0.88843,0.2735 0.94246,0.2278 0.99278,0.1811 1.03916,0.1343 1.08144,0.0876 1.1194998,0.0418 1.1531,-0.0028 1.1822,-0.0456 1.2065,-0.0861 1.2262,-0.1241 1.2409,-0.1593 1.2509,-0.1914 1.2558,-0.2202 1.2558,-0.2459 1.2509,-0.2682 1.2409,-0.2873 1.2262,-0.3032 1.2065,-0.3159 1.1822,-0.3255 1.1531,-0.3323 1.1195002,-0.336 1.0814,-0.3371 1.0392,-0.335301 0.9928,-0.330799 0.9424,-0.3236 0.8885,-0.3138 0.8309,-0.3012 0.77,-0.2862011 0.7063,-0.2684 0.6395,-0.2482 0.5704,-0.2255 0.499,-0.2007 0.4256,-0.17361 0.3506,-0.1448 0.274,-0.11437 0.1966,-0.08263 0.1182,-0.04997 0.0395,-0.01672 v 0 -26.299999 l -26.1803002,-2.0306 -0.8949,-0.0463 -0.2121,-0.011 -0.0752,-0.0039 -0.767,-0.0025 -0.3861,-0.0012 -0.1827,0.0091 -0.4147998,0.0208 -0.522,0.0261 -1.08144,0.1177 -0.58511,0.1015 -0.45405,0.0788 -0.11477,0.0281 -0.63991,0.1568 -0.19253,0.0472 -0.04557,0.0112 -0.1763,0.0572 -0.07522,0.0244 -0.69094,0.2243 -0.88843,0.3672 -0.83089,0.4269 -0.77008,0.4839 -0.70622,0.5379 -0.63957,0.5886 -0.57041,0.6354 -0.49899,0.6783 -0.425601,0.7175 -0.350533,0.7528 -0.274081,0.7848 -0.19655,0.8138 -0.11824,0.8403 -0.0349,0.7649 -0.0046,0.1 v 18.999999 z m 8.224335,-0.86343 0.04118,-0.21588 0.06791,-0.20901 0.09357,-0.198849 0.11776,-0.18555 0.14009,-0.16934 0.1602,-0.15044 0.17779,-0.12917 0.19259,-0.10588 0.20433,-0.0809 0.21286,-0.05465 0.21804,-0.02755 h 0.21978 l 0.218,0.02755 0.2129,0.05465 0.2043,0.0809 0.1926,0.10588 0.1778002,0.12917 0.1601996,0.15044 0.1401,0.16934 0.1177,0.18555 0.0936,0.198849 0.0679,0.20901 0.0412,0.21588 0.0138,0.21933 -0.0138,0.21933 -0.0412,0.21588 -0.0679,0.20899 -0.0936,0.1989 -0.1177,0.1855 -0.1401,0.1694 -0.1601996,0.1504 -0.1778002,0.1292 -0.1926,0.1058011 -0.2043,0.0809 -0.2129,0.0547 -0.218,0.0275 h -0.21978 l -0.21804,-0.0275 -0.21286,-0.0547 -0.20433,-0.0809 -0.19259,-0.1058011 -0.17779,-0.1292 -0.1602,-0.1504 -0.14009,-0.1694 -0.11776,-0.1855 -0.09357,-0.1989 -0.06791,-0.20899 -0.04118,-0.21588 -0.0138,-0.21933 z"
       stroke="#000000"
       fill="#d3d3d3"
       stroke-width="0.5"
       id="path4"
       sodipodi:nodetypes="cccccccccccccccccccccccccccccccccccccccccccccccccccccccccccccccccccccccccccccccccccccccccccccccccccccccccccccccccccccccccccccccccccccccccc"
       style="fill:#d3d3d3;fill-opacity:0.0154046;stroke-width:0.1;stroke-miterlimit:4;stroke-dasharray:0.1, 0.1;stroke-dashoffset:0" />
  </g>
</svg>
