<?xml version="1.0" encoding="UTF-8" standalone="no"?>
<svg
   width="42.128716mm"
   height="37.516933mm"
   viewBox="-19 -40 42.128716 37.516934"
   version="1.1"
   id="svg6"
   sodipodi:docname="design_a.svg"
   inkscape:version="1.1.2 (0a00cf5339, 2022-02-04)"
   inkscape:export-filename="/home/roman/repos/tf/TFSLOT01/doc/sticker/design_a.png"
   inkscape:export-xdpi="300.25128"
   inkscape:export-ydpi="300.25128"
   xmlns:inkscape="http://www.inkscape.org/namespaces/inkscape"
   xmlns:sodipodi="http://sodipodi.sourceforge.net/DTD/sodipodi-0.dtd"
   xmlns="http://www.w3.org/2000/svg"
   xmlns:svg="http://www.w3.org/2000/svg"
   xmlns:rdf="http://www.w3.org/1999/02/22-rdf-syntax-ns#"
   xmlns:cc="http://creativecommons.org/ns#"
   xmlns:dc="http://purl.org/dc/elements/1.1/">
  <defs
     id="defs10" />
  <sodipodi:namedview
     id="namedview8"
     pagecolor="#ffffff"
     bordercolor="#666666"
     borderopacity="1.0"
     inkscape:pageshadow="2"
     inkscape:pageopacity="0.0"
     inkscape:pagecheckerboard="0"
     inkscape:document-units="mm"
     showgrid="false"
     inkscape:zoom="8.5536548"
     inkscape:cx="35.949545"
     inkscape:cy="80.959545"
     inkscape:window-width="2806"
     inkscape:window-height="1736"
     inkscape:window-x="74"
     inkscape:window-y="27"
     inkscape:window-maximized="1"
     inkscape:current-layer="layer2"
     fit-margin-top="0"
     fit-margin-left="0"
     fit-margin-right="0"
     fit-margin-bottom="0" />
  <title
     id="title2">OpenSCAD Model</title>
  <metadata
     id="metadata827">
    <rdf:RDF>
      <cc:Work
         rdf:about="">
        <dc:title>OpenSCAD Model</dc:title>
      </cc:Work>
    </rdf:RDF>
  </metadata>
  <g
     inkscape:groupmode="layer"
     id="layer2"
     inkscape:label="design"
     transform="translate(1.0078124,1.0103228)"
     style="display:inline">
    <path
       id="path4-3"
       style="display:inline;opacity:1;fill:#00a95c;fill-opacity:1;stroke:none;stroke-width:0.1;stroke-miterlimit:4;stroke-dasharray:0.1, 0.1;stroke-dashoffset:0;stroke-opacity:1"
       d="m 8.4082031,-41.005859 c -9.4761972,0.666037 -18.9432301,1.456898 -28.4160151,2.169921 -10e-7,9.32487 0,18.64974 0,27.97461 7.409086,3.1446535 15.1416963,5.6307803 23.1061925,6.8778935 4.6262108,0.6807289 9.5498895,0.8835481 13.9535415,-0.940873 2.494076,-1.0659146 4.837961,-3.2464726 5.006672,-6.1030365 0.137123,-2.439117 -0.0025,-4.885359 0.04833,-7.327733 -0.0277,-4.488375 0.08192,-8.982471 -0.07784,-13.467101 -0.411288,-3.780047 -3.318317,-6.969884 -6.855418,-8.1845 -2.151582,-0.811456 -4.479965,-1.039747 -6.7654699,-0.999181 z m 2.8261719,28.777343 c 0.798022,0.195541 0.538711,1.575897 -0.310547,1.351563 -0.758057,-0.137944 -0.719348,-1.318109 0.0625,-1.363281 0.08325,-0.0094 0.16551,0.0039 0.248047,0.01172 z" />
    <text
       xml:space="preserve"
       style="font-style:normal;font-weight:normal;font-size:4.93889px;line-height:1.25;font-family:sans-serif;fill:#2e2a2b;fill-opacity:1;stroke:none;stroke-width:0.264583"
       x="-12.507262"
       y="-19.162809"
       id="text3882"><tspan
         sodipodi:role="line"
         id="tspan3880"
         style="font-style:normal;font-variant:normal;font-weight:normal;font-stretch:normal;font-size:4.93889px;font-family:cabin;-inkscape-font-specification:cabin;fill:#2e2a2b;fill-opacity:1;stroke-width:0.264583"
         x="-12.507262"
         y="-19.162809" /></text>
    <g
       id="g12"
       transform="matrix(0.00957016,0,0,-0.00957016,-17.317496,-21.2776)">
      <path
         d="M 311.844,989.344 H 204.266 v 67.376 H 488.973 V 989.344 H 381.391 V 676.391 h -69.547 v 312.953"
         style="fill:#2e2a2b;fill-opacity:1;fill-rule:nonzero;stroke:none"
         id="path14"
         inkscape:connector-curvature="0" />
      <path
         d="m 527.977,1056.72 h 69.539 V 906.219 h 173.855 v 150.501 h 69.555 V 676.391 H 771.371 V 841.016 H 597.516 V 676.391 h -69.539 v 380.329"
         style="fill:#2e2a2b;fill-opacity:1;fill-rule:nonzero;stroke:none"
         id="path16"
         inkscape:connector-curvature="0" />
      <path
         d="m 952.953,714.148 c -26.441,30.247 -39.656,71.993 -39.656,125.235 V 1056.72 H 982.84 V 857.313 c 0,-26.446 2.351,-48.446 7.058,-66.004 4.707,-17.579 13.492,-31.243 26.362,-41.028 12.85,-9.773 31.05,-14.668 54.61,-14.668 23.52,0 41.73,4.895 54.58,14.668 12.86,9.785 21.66,23.449 26.36,41.028 4.71,17.558 7.06,39.558 7.06,66.004 v 199.407 h 69.54 V 839.383 c 0,-53.242 -13.22,-94.988 -39.64,-125.235 -26.46,-30.238 -65.76,-45.359 -117.9,-45.359 -52.17,0 -91.479,15.121 -117.917,45.359"
         style="fill:#2e2a2b;fill-opacity:1;fill-rule:nonzero;stroke:none"
         id="path18"
         inkscape:connector-curvature="0" />
      <path
         d="m 1300.79,1056.72 h 68.45 L 1531.7,811.133 v 245.587 h 69.54 V 676.391 h -57.05 L 1370.33,937.176 V 676.391 h -69.54 v 380.329"
         style="fill:#2e2a2b;fill-opacity:1;fill-rule:nonzero;stroke:none"
         id="path20"
         inkscape:connector-curvature="0" />
      <path
         d="m 1819.42,738.328 c 36.22,0 63.84,11.309 82.86,33.965 19.01,22.629 28.53,54.062 28.53,94.258 0,40.207 -9.52,71.633 -28.53,94.269 -19.02,22.625 -46.64,33.953 -82.86,33.953 h -72.8 V 738.328 Z m -142.34,318.392 h 142.34 c 36.22,0 68.54,-7.61 96.99,-22.83 28.43,-15.21 50.61,-37.132 66.55,-65.738 15.94,-28.621 23.91,-62.48 23.91,-101.601 0,-39.11 -7.97,-72.988 -23.91,-101.602 -15.94,-28.621 -38.12,-50.527 -66.55,-65.738 -28.45,-15.223 -60.77,-22.82 -96.99,-22.82 h -142.34 v 380.329"
         style="fill:#2e2a2b;fill-opacity:1;fill-rule:nonzero;stroke:none"
         id="path22"
         inkscape:connector-curvature="0" />
      <path
         d="m 2061.58,1056.72 h 243.4 v -67.376 h -172.23 v -80.957 h 133.66 v -67.371 h -133.66 v -97.258 h 177.68 v -67.367 h -248.85 v 380.329"
         style="fill:#2e2a2b;fill-opacity:1;fill-rule:nonzero;stroke:none"
         id="path24"
         inkscape:connector-curvature="0" />
      <path
         d="m 2486.01,875.789 c 51.08,0 76.61,20.656 76.61,61.934 0,19.922 -5.8,35.05 -17.38,45.371 -11.59,10.324 -30.43,15.488 -56.51,15.488 h -53.78 V 875.789 Z M 2365.4,1056.72 h 139.09 c 40.55,0 72.54,-9.7 95.9,-29.08 23.37,-19.37 35.05,-48.081 35.05,-86.109 0,-26.445 -5.63,-48.086 -16.85,-64.929 -11.24,-16.836 -27.17,-30.332 -47.81,-40.469 l 85.85,-159.742 h -77.71 l -73.35,141.265 h -2.71 -67.91 V 676.391 h -69.55 v 380.329"
         style="fill:#2e2a2b;fill-opacity:1;fill-rule:nonzero;stroke:none"
         id="path26"
         inkscape:connector-curvature="0" />
      <path
         d="m 2748.99,1056.72 h 225.47 l -11.95,-67.376 h -155.4 l -14.66,-80.957 h 120.62 l -11.96,-67.371 H 2780.49 L 2751.7,676.391 h -69.55 l 66.84,380.329"
         style="fill:#2e2a2b;fill-opacity:1;fill-rule:nonzero;stroke:none"
         id="path28"
         inkscape:connector-curvature="0" />
      <path
         d="m 3020.79,1056.72 h 69.54 l -54.89,-312.962 h 131.26 l -11.95,-67.367 h -200.8 l 66.84,380.329"
         style="fill:#2e2a2b;fill-opacity:1;fill-rule:nonzero;stroke:none"
         id="path30"
         inkscape:connector-curvature="0" />
      <path
         d="m 3259.63,844.813 -89.11,211.907 h 73.9 l 61.93,-152.13 113.02,152.13 h 73.89 l -164.08,-211.907 -29.9,-168.422 h -68.99 l 29.34,168.422"
         style="fill:#2e2a2b;fill-opacity:1;fill-rule:nonzero;stroke:none"
         id="path32"
         inkscape:connector-curvature="0" />
      <path
         d="m 2667.32,586.172 h 69.54 L 2670.03,205.84 h -69.54 l 66.83,380.332"
         style="fill:#fab20b;fill-opacity:1;fill-rule:nonzero;stroke:none"
         id="path34"
         inkscape:connector-curvature="0" />
      <path
         d="m 2939.83,586.172 h 69.55 L 2942.54,205.84 H 2873 l 66.83,380.332"
         style="fill:#fab20b;fill-opacity:1;fill-rule:nonzero;stroke:none"
         id="path36"
         inkscape:connector-curvature="0" />
      <path
         d="m 3214.91,586.172 h 69.55 L 3217.62,205.84 h -69.54 l 66.83,380.332"
         style="fill:#fab20b;fill-opacity:1;fill-rule:nonzero;stroke:none"
         id="path38"
         inkscape:connector-curvature="0" />
      <path
         d="m 2831.31,1528.05 h 69.55 l -66.83,-380.33 h -69.54 l 66.82,380.33"
         style="fill:#fab20b;fill-opacity:1;fill-rule:nonzero;stroke:none"
         id="path40"
         inkscape:connector-curvature="0" />
      <path
         d="m 3103.78,1528.05 h 69.54 l -66.83,-380.33 h -69.55 l 66.84,380.33"
         style="fill:#fab20b;fill-opacity:1;fill-rule:nonzero;stroke:none"
         id="path42"
         inkscape:connector-curvature="0" />
      <path
         d="m 3379.19,1528.05 h 69.56 l -66.84,-380.33 h -69.54 l 66.82,380.33"
         style="fill:#fab20b;fill-opacity:1;fill-rule:nonzero;stroke:none"
         id="path44"
         inkscape:connector-curvature="0" />
    </g>
    <g
       aria-label="TFSLOT01"
       id="text1596"
       style="font-size:4.98937px;line-height:1.25;fill:#2e2a2b;stroke-width:0.311836">
      <path
         d="m -14.374742,-23.271807 v -2.873877 h -0.987896 v -0.618682 h 2.61443 v 0.618682 h -0.987895 v 2.873877 z"
         style="font-weight:bold;font-family:cabin;-inkscape-font-specification:'cabin Bold'"
         id="path3516" />
      <path
         d="m -12.289191,-23.271807 v -3.492559 h 2.150418 v 0.618682 h -1.511779 v 0.743416 h 1.167513 v 0.618682 h -1.167513 v 1.511779 z"
         style="font-weight:bold;font-family:cabin;-inkscape-font-specification:'cabin Bold'"
         id="path3518" />
      <path
         d="m -8.6569315,-23.201956 q -0.2120482,0 -0.4365699,-0.04241 -0.2245216,-0.03992 -0.4166124,-0.09729 -0.1920907,-0.05987 -0.3043515,-0.114755 l 0.074841,-0.678555 q 0.174628,0.08482 0.364224,0.157165 0.1895961,0.07235 0.3891709,0.117251 0.1995748,0.0449 0.4041389,0.0449 0.2544579,0 0.4091284,-0.09979 0.1546704,-0.09979 0.1546704,-0.304352 0,-0.157165 -0.087314,-0.251963 -0.087314,-0.09729 -0.2669313,-0.172133 -0.1796173,-0.07734 -0.4590221,-0.174628 -0.2794047,-0.09729 -0.5014316,-0.219533 -0.222027,-0.124734 -0.3517506,-0.31433 -0.1297236,-0.189596 -0.1297236,-0.483969 0,-0.289383 0.142197,-0.513905 0.1421971,-0.227016 0.4240965,-0.354245 0.284394,-0.129724 0.7059958,-0.129724 0.3193197,0 0.6087031,0.07235 0.2893835,0.06985 0.4939476,0.152176 l -0.064862,0.653607 q -0.2943728,-0.132218 -0.55382,-0.199575 -0.2569526,-0.06985 -0.5238839,-0.06985 -0.2794047,0 -0.4315805,0.0923 -0.1521757,0.0923 -0.1521757,0.27691 0,0.147186 0.084819,0.236995 0.084819,0.08981 0.2419845,0.15467 0.1571651,0.06237 0.3766974,0.132219 0.3791921,0.119744 0.6361447,0.264436 0.2594472,0.142197 0.3891708,0.346761 0.1322183,0.20207 0.1322183,0.501432 0,0.149681 -0.047399,0.326804 -0.047399,0.174628 -0.1871014,0.331793 -0.1397023,0.157165 -0.4091283,0.259447 -0.2669313,0.09979 -0.7084905,0.09979 z"
         style="font-weight:bold;font-family:cabin;-inkscape-font-specification:'cabin Bold'"
         id="path3520" />
      <path
         d="m -6.7759395,-23.271807 v -3.492559 h 0.6386394 v 2.923771 h 1.4369385 v 0.568788 z"
         style="font-weight:bold;font-family:cabin;-inkscape-font-specification:'cabin Bold'"
         id="path3522" />
      <path
         d="m -2.8343489,-23.201956 q -0.498937,0 -0.8881079,-0.224521 -0.3891708,-0.227017 -0.6111978,-0.63365 -0.2220269,-0.409128 -0.2220269,-0.957959 0,-0.548831 0.2220269,-0.955465 0.222027,-0.409128 0.6111978,-0.633649 0.3891709,-0.227017 0.8881079,-0.227017 0.498937,0 0.8881078,0.227017 0.3891709,0.224521 0.6111978,0.633649 0.222027,0.406634 0.222027,0.955465 0,0.548831 -0.222027,0.957959 -0.2220269,0.406633 -0.6111978,0.63365 -0.3891708,0.224521 -0.8881078,0.224521 z m 0,-0.618681 q 0.3492559,0 0.5837562,-0.154671 0.2345004,-0.15467 0.3517506,-0.424096 0.1172502,-0.271921 0.1172502,-0.618682 0,-0.346761 -0.1172502,-0.616187 -0.1172502,-0.271921 -0.3517506,-0.426591 -0.2345003,-0.154671 -0.5837562,-0.154671 -0.3492559,0 -0.5837563,0.154671 -0.2345004,0.15467 -0.3517506,0.426591 -0.1172502,0.269426 -0.1172502,0.616187 0,0.346761 0.1172502,0.618682 0.1172502,0.269426 0.3517506,0.424096 0.2345004,0.154671 0.5837563,0.154671 z"
         style="font-weight:bold;font-family:cabin;-inkscape-font-specification:'cabin Bold'"
         id="path3524" />
      <path
         d="m 0.05947422,-23.271807 v -2.873877 h -0.98789524 v -0.618682 H 1.6860088 v 0.618682 H 0.69811356 v 2.873877 z"
         style="font-weight:bold;font-family:cabin;-inkscape-font-specification:'cabin Bold'"
         id="path3526" />
      <path
         d="m 3.4721879,-23.201956 q -0.4415592,0 -0.7733523,-0.229511 -0.3292984,-0.232005 -0.5139051,-0.646123 -0.1846067,-0.416612 -0.1846067,-0.970432 0,-0.528874 0.1846067,-0.930518 0.1846067,-0.404139 0.5139051,-0.62866 0.3317931,-0.227017 0.7733523,-0.227017 0.4440539,0 0.7733524,0.227017 0.3317931,0.227016 0.5139051,0.631155 0.1846066,0.401644 0.1846066,0.928023 0,0.55382 -0.1846066,0.970432 -0.182112,0.414118 -0.5139051,0.646123 -0.3292985,0.229511 -0.7733524,0.229511 z m 0,-0.573777 q 0.2369951,0 0.4240965,-0.129724 0.189596,-0.129723 0.2993622,-0.409128 0.1097661,-0.281899 0.1097661,-0.733437 0,-0.621177 -0.2394898,-0.920539 -0.236995,-0.301857 -0.593735,-0.301857 -0.3542452,0 -0.593735,0.299362 -0.2394897,0.296868 -0.2394897,0.923034 0,0.446548 0.1097661,0.728448 0.1097661,0.279404 0.2968675,0.411623 0.1895961,0.132218 0.4265911,0.132218 z"
         style="font-weight:bold;font-family:cabin;-inkscape-font-specification:'cabin Bold'"
         id="path3528" />
      <path
         d="m 5.9519011,-23.271807 v -2.589483 q -0.097293,0.06237 -0.2070589,0.109766 -0.1072714,0.0474 -0.2320057,0.06985 l -0.054883,-0.538852 q 0.1072714,-0.02245 0.2394897,-0.107272 0.1322183,-0.08482 0.2444791,-0.199575 0.1122609,-0.11725 0.1596599,-0.236995 h 0.4889582 v 3.492559 z"
         style="font-weight:bold;font-family:cabin;-inkscape-font-specification:'cabin Bold'"
         id="path3530" />
    </g>
    <g
       aria-label="Venturi effect-based
airspeed sensor"
       id="text3340"
       style="font-size:2.82222px;line-height:1.25;fill:#2e2a2b;stroke-width:0.264583">
      <path
         d="m -14.577157,-17.396952 -0.785481,-2.057409 h 0.290766 l 0.651812,1.732193 0.653189,-1.732193 h 0.289388 l -0.784103,2.057409 z"
         id="path3533" />
      <path
         d="m -12.087044,-18.232042 v 0.124023 h -1.165819 q 0.01654,0.261827 0.157096,0.399631 0.141938,0.136426 0.394119,0.136426 0.146072,0 0.282497,-0.03583 0.137804,-0.03583 0.272852,-0.107487 v 0.239778 q -0.136426,0.05788 -0.279742,0.08819 -0.143316,0.03032 -0.290766,0.03032 -0.369314,0 -0.585665,-0.214973 -0.214974,-0.214974 -0.214974,-0.581532 0,-0.37896 0.203949,-0.600824 0.205328,-0.223242 0.552593,-0.223242 0.311437,0 0.491959,0.201193 0.181901,0.199816 0.181901,0.544325 z m -0.253558,-0.07441 q -0.0028,-0.208084 -0.117134,-0.332107 -0.112999,-0.124023 -0.300412,-0.124023 -0.212217,0 -0.340375,0.119889 -0.126779,0.119889 -0.146072,0.337619 z"
         id="path3535" />
      <path
         d="m -10.387924,-18.328505 v 0.931553 h -0.253559 v -0.923285 q 0,-0.219107 -0.08544,-0.327972 -0.08544,-0.108865 -0.256315,-0.108865 -0.205327,0 -0.323839,0.130913 -0.118511,0.130914 -0.118511,0.356912 v 0.872297 h -0.254937 v -1.543401 h 0.254937 v 0.239778 q 0.09095,-0.139182 0.213596,-0.208083 0.124023,-0.0689 0.285254,-0.0689 0.265961,0 0.402386,0.165364 0.136426,0.163987 0.136426,0.483691 z"
         id="path3537" />
      <path
         d="m -9.6313813,-19.378569 v 0.438216 h 0.5222761 v 0.197059 h -0.5222761 v 0.837847 q 0,0.188791 0.050987,0.242534 0.052365,0.05374 0.2108397,0.05374 h 0.260449 v 0.212217 h -0.260449 q -0.2935219,0 -0.4051429,-0.108865 -0.111621,-0.110243 -0.111621,-0.39963 v -0.837847 h -0.1860345 v -0.197059 h 0.1860345 v -0.438216 z"
         id="path3539" />
      <path
         d="m -8.8018032,-18.006044 v -0.934309 h 0.2535589 v 0.924663 q 0,0.219108 0.085438,0.329351 0.085438,0.108864 0.2563149,0.108864 0.2053275,0 0.3238387,-0.130913 0.1198892,-0.130914 0.1198892,-0.356912 v -0.875053 h 0.2535589 v 1.543401 h -0.2535589 v -0.237022 q -0.092328,0.14056 -0.2149737,0.209462 -0.1212673,0.06752 -0.2824977,0.06752 -0.2659611,0 -0.4037649,-0.165364 -0.1378037,-0.165365 -0.1378037,-0.483691 z m 0.6380312,-0.971516 z"
         id="path3541" />
      <path
         d="m -6.0925824,-18.703331 q -0.042719,-0.02481 -0.093706,-0.03583 -0.049609,-0.0124 -0.1102429,-0.0124 -0.2149738,0 -0.330729,0.14056 -0.114377,0.139181 -0.114377,0.401008 v 0.813042 h -0.2549369 v -1.543401 h 0.2549369 v 0.239778 q 0.079926,-0.14056 0.2080836,-0.208083 0.1281574,-0.0689 0.3114364,-0.0689 0.026183,0 0.057878,0.0041 0.031695,0.0028 0.07028,0.0096 z"
         id="path3543" />
      <path
         d="m -5.8266206,-18.940353 h 0.2535589 v 1.543401 h -0.2535589 z m 0,-0.600824 h 0.2535589 v 0.321082 h -0.2535589 z"
         id="path3545" />
      <path
         d="m -2.8252562,-18.232042 v 0.124023 h -1.1658194 q 0.016536,0.261827 0.1570962,0.399631 0.1419378,0.136426 0.3941186,0.136426 0.146072,0 0.2824977,-0.03583 0.1378037,-0.03583 0.2728513,-0.107487 v 0.239778 q -0.1364257,0.05788 -0.2797415,0.08819 -0.1433159,0.03032 -0.2907659,0.03032 -0.3693139,0 -0.5856658,-0.214973 -0.2149738,-0.214974 -0.2149738,-0.581532 0,-0.37896 0.2039495,-0.600824 0.2053276,-0.223242 0.5525929,-0.223242 0.3114364,0 0.4919593,0.201193 0.1819009,0.199816 0.1819009,0.544325 z m -0.2535588,-0.07441 q -0.00276,-0.208084 -0.1171332,-0.332107 -0.112999,-0.124023 -0.3004121,-0.124023 -0.2122177,0 -0.3403752,0.119889 -0.1267794,0.119889 -0.1460719,0.337619 z"
         id="path3547" />
      <path
         d="m -0.67689591,-19.541177 v 0.210839 h -0.24253454 q -0.13642565,0 -0.19016915,0.05512 -0.052365,0.05512 -0.052365,0.198437 v 0.136426 h 0.41754527 v 0.197059 H -1.161965 v 1.346342 h -0.2549369 v -1.346342 h -0.6959087 v 1.346342 h -0.2549369 v -1.346342 H -2.610282 v -0.197059 h 0.2425345 v -0.107487 q 0,-0.257693 0.1198892,-0.374826 0.1198893,-0.118511 0.3803383,-0.118511 h 0.2397785 v 0.210839 h -0.2425346 q -0.1364257,0 -0.1901691,0.05512 -0.052365,0.05512 -0.052365,0.198437 v 0.136426 h 0.6959087 v -0.107487 q 0,-0.257693 0.1198893,-0.374826 0.1198892,-0.118511 0.38033822,-0.118511 z"
         id="path3549" />
      <path
         d="m 0.8554813,-18.232042 v 0.124023 h -1.16581943 q 0.0165364,0.261827 0.15709624,0.399631 0.14193783,0.136426 0.39411862,0.136426 0.14607194,0 0.28249762,-0.03583 0.13780372,-0.03583 0.27285136,-0.107487 v 0.239778 q -0.13642568,0.05788 -0.27974155,0.08819 -0.14331586,0.03032 -0.29076583,0.03032 -0.36931396,0 -0.58566579,-0.214973 -0.2149738,-0.214974 -0.2149738,-0.581532 0,-0.37896 0.2039495,-0.600824 0.20532753,-0.223242 0.5525929,-0.223242 0.31143639,0 0.49195926,0.201193 0.1819009,0.199816 0.1819009,0.544325 z m -0.25355883,-0.07441 q -0.002756,-0.208084 -0.11713316,-0.332107 -0.11299905,-0.124023 -0.3004121,-0.124023 -0.21221772,0 -0.34037518,0.119889 -0.12677941,0.119889 -0.14607193,0.337619 z"
         id="path3551" />
      <path
         d="m 2.3823459,-18.881098 v 0.237023 q -0.1074869,-0.05926 -0.2163519,-0.08819 -0.1074869,-0.03032 -0.2177298,-0.03032 -0.2466687,0 -0.3830944,0.157096 -0.1364256,0.155718 -0.1364256,0.438216 0,0.282497 0.1364256,0.439593 0.1364257,0.155719 0.3830944,0.155719 0.1102429,0 0.2177298,-0.02894 0.108865,-0.03032 0.2163519,-0.08957 v 0.234267 q -0.1061089,0.04961 -0.220486,0.07441 -0.112999,0.0248 -0.2411565,0.0248 -0.3486434,0 -0.5539709,-0.219108 -0.2053275,-0.219107 -0.2053275,-0.591177 0,-0.377583 0.2067055,-0.593934 0.2080836,-0.216352 0.5691294,-0.216352 0.1171331,0 0.2287541,0.0248 0.1116211,0.02343 0.2163519,0.07166 z"
         id="path3553" />
      <path
         d="m 3.0741208,-19.378569 v 0.438216 h 0.522276 v 0.197059 h -0.522276 v 0.837847 q 0,0.188791 0.050987,0.242534 0.052366,0.05374 0.2108397,0.05374 h 0.260449 v 0.212217 h -0.260449 q -0.2935219,0 -0.4051429,-0.108865 -0.111621,-0.110243 -0.111621,-0.39963 v -0.837847 h -0.186035 v -0.197059 h 0.186035 v -0.438216 z"
         id="path3555" />
      <path
         d="m 3.8017241,-18.28303 h 0.742762 v 0.225999 h -0.742762 z"
         id="path3557" />
      <path
         d="m 6.0561931,-18.167274 q 0,-0.279742 -0.1157551,-0.438216 -0.1143771,-0.159853 -0.3155705,-0.159853 -0.2011934,0 -0.3169486,0.159853 -0.114377,0.158474 -0.114377,0.438216 0,0.279741 0.114377,0.439593 0.1157552,0.158475 0.3169486,0.158475 0.2011934,0 0.3155705,-0.158475 0.1157551,-0.159852 0.1157551,-0.439593 z m -0.8626512,-0.538813 q 0.079926,-0.137804 0.2011934,-0.203949 0.1226453,-0.06752 0.2921439,-0.06752 0.2811195,0 0.4561303,0.223242 0.1763887,0.223242 0.1763887,0.587044 0,0.363801 -0.1763887,0.587043 -0.1750108,0.223242 -0.4561303,0.223242 -0.1694986,0 -0.2921439,-0.06615 -0.1212673,-0.06752 -0.2011934,-0.205328 v 0.23151 H 4.938605 v -2.144225 h 0.2549369 z"
         id="path3559" />
      <path
         d="m 7.4411208,-18.172787 q -0.3073023,0 -0.4258135,0.07028 -0.1185112,0.07028 -0.1185112,0.239779 0,0.135047 0.088194,0.214974 0.089572,0.07855 0.2425345,0.07855 0.2108397,0 0.3376191,-0.148828 0.1281574,-0.150206 0.1281574,-0.398253 v -0.0565 z m 0.5057396,-0.10473 v 0.880565 H 7.6933015 v -0.234266 q -0.086816,0.14056 -0.2163518,0.208084 -0.1295355,0.06615 -0.3169485,0.06615 -0.2370224,0 -0.3775822,-0.132291 -0.1391818,-0.13367 -0.1391818,-0.356912 0,-0.260449 0.1736327,-0.39274 0.1750107,-0.132292 0.5208981,-0.132292 h 0.3555335 v -0.0248 q 0,-0.17501 -0.1157551,-0.270095 -0.1143771,-0.09646 -0.3224607,-0.09646 -0.1322915,0 -0.2576929,0.03169 -0.1254014,0.03169 -0.2411565,0.09509 v -0.234266 q 0.1391817,-0.05374 0.2700953,-0.07993 0.1309135,-0.02756 0.2549368,-0.02756 0.3348631,0 0.5002275,0.173632 0.1653645,0.173633 0.1653645,0.526411 z"
         id="path3561" />
      <path
         d="m 9.4530552,-18.894878 v 0.239778 q -0.1074869,-0.05512 -0.223242,-0.08268 -0.1157551,-0.02756 -0.2397784,-0.02756 -0.1887911,0 -0.2838757,0.05788 -0.093707,0.05788 -0.093707,0.173633 0,0.08819 0.067524,0.139181 0.067524,0.04961 0.2714733,0.09509 l 0.086816,0.01929 q 0.2700952,0.05788 0.3830943,0.163986 0.1143771,0.104731 0.1143771,0.293522 0,0.214974 -0.1708766,0.340375 -0.1694986,0.125401 -0.4671546,0.125401 -0.1240234,0 -0.259071,-0.0248 -0.1336696,-0.02343 -0.2824976,-0.07166 v -0.261827 q 0.1405598,0.07304 0.2769854,0.110243 0.1364257,0.03583 0.2700953,0.03583 0.1791448,0 0.2756074,-0.06063 0.096463,-0.06201 0.096463,-0.173633 0,-0.103352 -0.07028,-0.158474 -0.068902,-0.05512 -0.3045463,-0.106109 l -0.088194,-0.02067 q -0.2356444,-0.04961 -0.3403752,-0.151584 -0.1047308,-0.103353 -0.1047308,-0.282498 0,-0.21773 0.1543401,-0.336241 0.1543402,-0.118511 0.4382158,-0.118511 0.1405598,0 0.2645832,0.02067 0.1240233,0.02067 0.2287541,0.06201 z"
         id="path3563" />
      <path
         d="m 11.259662,-18.232042 v 0.124023 h -1.16582 q 0.01654,0.261827 0.157097,0.399631 0.141937,0.136426 0.394118,0.136426 0.146072,0 0.282498,-0.03583 0.137804,-0.03583 0.272851,-0.107487 v 0.239778 q -0.136425,0.05788 -0.279741,0.08819 -0.143316,0.03032 -0.290766,0.03032 -0.369314,0 -0.585666,-0.214973 -0.2149737,-0.214974 -0.2149737,-0.581532 0,-0.37896 0.2039497,-0.600824 0.205327,-0.223242 0.552593,-0.223242 0.311436,0 0.491959,0.201193 0.181901,0.199816 0.181901,0.544325 z m -0.253559,-0.07441 q -0.0028,-0.208084 -0.117133,-0.332107 -0.112999,-0.124023 -0.300412,-0.124023 -0.212218,0 -0.340375,0.119889 -0.12678,0.119889 -0.146072,0.337619 z"
         id="path3565" />
      <path
         d="m 12.691442,-18.706087 v -0.83509 h 0.253559 v 2.144225 h -0.253559 v -0.23151 q -0.07993,0.137804 -0.202572,0.205328 -0.121267,0.06615 -0.292143,0.06615 -0.279742,0 -0.456131,-0.223242 -0.175011,-0.223242 -0.175011,-0.587043 0,-0.363802 0.175011,-0.587044 0.176389,-0.223242 0.456131,-0.223242 0.170876,0 0.292143,0.06752 0.122646,0.06615 0.202572,0.203949 z m -0.864029,0.538813 q 0,0.279741 0.114377,0.439593 0.115755,0.158475 0.316948,0.158475 0.201194,0 0.316949,-0.158475 0.115755,-0.159852 0.115755,-0.439593 0,-0.279742 -0.115755,-0.438216 -0.115755,-0.159853 -0.316949,-0.159853 -0.201193,0 -0.316948,0.159853 -0.114377,0.158474 -0.114377,0.438216 z"
         id="path3567" />
      <path
         d="m -14.417304,-14.645011 q -0.307303,0 -0.425814,0.07028 -0.118511,0.07028 -0.118511,0.239779 0,0.135048 0.08819,0.214974 0.08957,0.07855 0.242535,0.07855 0.21084,0 0.337619,-0.148828 0.128157,-0.150206 0.128157,-0.398253 v -0.0565 z m 0.505739,-0.104731 v 0.880565 h -0.253559 v -0.234266 q -0.08682,0.14056 -0.216351,0.208084 -0.129536,0.06615 -0.316949,0.06615 -0.237022,0 -0.377582,-0.132292 -0.139182,-0.13367 -0.139182,-0.356912 0,-0.260449 0.173633,-0.39274 0.17501,-0.132292 0.520898,-0.132292 h 0.355533 v -0.02481 q 0,-0.17501 -0.115755,-0.270095 -0.114377,-0.09646 -0.32246,-0.09646 -0.132292,0 -0.257693,0.03169 -0.125402,0.0317 -0.241157,0.09509 v -0.234266 q 0.139182,-0.05374 0.270095,-0.07993 0.130914,-0.02756 0.254937,-0.02756 0.334863,0 0.500228,0.173633 0.165364,0.173632 0.165364,0.526411 z"
         id="path3569" />
      <path
         d="m -13.389289,-15.412578 h 0.253559 v 1.543401 h -0.253559 z m 0,-0.600824 h 0.253559 v 0.321082 h -0.253559 z"
         id="path3571" />
      <path
         d="m -11.710839,-15.175556 q -0.04272,-0.0248 -0.09371,-0.03583 -0.04961,-0.0124 -0.110243,-0.0124 -0.214974,0 -0.330729,0.14056 -0.114377,0.139181 -0.114377,0.401009 v 0.813041 h -0.254937 v -1.543401 h 0.254937 v 0.239778 q 0.07993,-0.14056 0.208084,-0.208083 0.128157,-0.0689 0.311436,-0.0689 0.02618,0 0.05788,0.0041 0.03169,0.0028 0.07028,0.0096 z"
         id="path3573" />
      <path
         d="m -10.46096,-15.367103 v 0.239779 q -0.107486,-0.05512 -0.223242,-0.08268 -0.115755,-0.02756 -0.239778,-0.02756 -0.188791,0 -0.283876,0.05788 -0.09371,0.05788 -0.09371,0.173633 0,0.08819 0.06752,0.139182 0.06752,0.04961 0.271473,0.09508 l 0.08682,0.01929 q 0.270096,0.05788 0.383095,0.163986 0.114377,0.104731 0.114377,0.293522 0,0.214974 -0.170877,0.340375 -0.169499,0.125402 -0.467155,0.125402 -0.124023,0 -0.259071,-0.02481 -0.133669,-0.02343 -0.282497,-0.07166 v -0.261827 q 0.14056,0.07304 0.276985,0.110243 0.136426,0.03583 0.270096,0.03583 0.179144,0 0.275607,-0.06063 0.09646,-0.06201 0.09646,-0.173633 0,-0.103352 -0.07028,-0.158474 -0.0689,-0.05512 -0.304546,-0.106109 l -0.08819,-0.02067 q -0.235644,-0.04961 -0.340375,-0.151584 -0.104731,-0.103353 -0.104731,-0.282498 0,-0.21773 0.15434,-0.336241 0.15434,-0.118511 0.438216,-0.118511 0.14056,0 0.264583,0.02067 0.124024,0.02067 0.228754,0.06201 z"
         id="path3575" />
      <path
         d="m -9.729222,-14.100687 v 0.818554 h -0.2549368 v -2.130445 h 0.2549368 v 0.234266 q 0.079926,-0.137804 0.2011935,-0.203949 0.1226453,-0.06752 0.2921438,-0.06752 0.2811196,0 0.4561303,0.223242 0.1763888,0.223242 0.1763888,0.587044 0,0.363801 -0.1763888,0.587043 -0.1750107,0.223243 -0.4561303,0.223243 -0.1694985,0 -0.2921438,-0.06615 -0.1212673,-0.06752 -0.2011935,-0.205328 z m 0.8626513,-0.538812 q 0,-0.279742 -0.1157551,-0.438216 -0.1143771,-0.159852 -0.3155705,-0.159852 -0.2011935,0 -0.3169486,0.159852 -0.1143771,0.158474 -0.1143771,0.438216 0,0.279741 0.1143771,0.439594 0.1157551,0.158474 0.3169486,0.158474 0.2011934,0 0.3155705,-0.158474 0.1157551,-0.159853 0.1157551,-0.439594 z"
         id="path3577" />
      <path
         d="m -6.8629044,-14.704267 v 0.124023 h -1.1658194 q 0.016536,0.261827 0.1570962,0.399631 0.1419378,0.136426 0.3941186,0.136426 0.146072,0 0.2824977,-0.03583 0.1378037,-0.03583 0.2728513,-0.107487 v 0.239778 q -0.1364257,0.05788 -0.2797415,0.0882 -0.1433159,0.03032 -0.2907659,0.03032 -0.3693139,0 -0.5856658,-0.214974 -0.2149738,-0.214974 -0.2149738,-0.581532 0,-0.37896 0.2039495,-0.600824 0.2053276,-0.223242 0.5525929,-0.223242 0.3114364,0 0.4919593,0.201193 0.1819009,0.199816 0.1819009,0.544325 z m -0.2535588,-0.07441 q -0.00276,-0.208084 -0.1171332,-0.332107 -0.112999,-0.124023 -0.3004121,-0.124023 -0.2122177,0 -0.3403752,0.119889 -0.1267794,0.119889 -0.1460719,0.337619 z"
         id="path3579" />
      <path
         d="m -5.1265782,-14.704267 v 0.124023 h -1.1658194 q 0.016536,0.261827 0.1570962,0.399631 0.1419379,0.136426 0.3941187,0.136426 0.1460719,0 0.2824976,-0.03583 0.1378037,-0.03583 0.2728513,-0.107487 v 0.239778 q -0.1364257,0.05788 -0.2797415,0.0882 -0.1433159,0.03032 -0.2907659,0.03032 -0.3693139,0 -0.5856657,-0.214974 -0.2149738,-0.214974 -0.2149738,-0.581532 0,-0.37896 0.2039495,-0.600824 0.2053275,-0.223242 0.5525929,-0.223242 0.3114364,0 0.4919592,0.201193 0.1819009,0.199816 0.1819009,0.544325 z m -0.2535588,-0.07441 q -0.00276,-0.208084 -0.1171332,-0.332107 -0.112999,-0.124023 -0.3004121,-0.124023 -0.2122177,0 -0.3403751,0.119889 -0.1267795,0.119889 -0.146072,0.337619 z"
         id="path3581" />
      <path
         d="m -3.6947972,-15.178312 v -0.83509 h 0.2535588 v 2.144225 h -0.2535588 v -0.23151 q -0.079926,0.137804 -0.2025715,0.205328 -0.1212672,0.06615 -0.2921439,0.06615 -0.2797415,0 -0.4561302,-0.223243 -0.1750108,-0.223242 -0.1750108,-0.587043 0,-0.363802 0.1750108,-0.587044 0.1763887,-0.223242 0.4561302,-0.223242 0.1708767,0 0.2921439,0.06752 0.1226453,0.06615 0.2025715,0.203949 z m -0.8640293,0.538813 q 0,0.279741 0.1143771,0.439594 0.1157551,0.158474 0.3169485,0.158474 0.2011934,0 0.3169486,-0.158474 0.1157551,-0.159853 0.1157551,-0.439594 0,-0.279742 -0.1157551,-0.438216 -0.1157552,-0.159852 -0.3169486,-0.159852 -0.2011934,0 -0.3169485,0.159852 -0.1143771,0.158474 -0.1143771,0.438216 z"
         id="path3583" />
      <path
         d="m -1.0379411,-15.367103 v 0.239779 q -0.1074869,-0.05512 -0.223242,-0.08268 -0.1157552,-0.02756 -0.2397785,-0.02756 -0.1887911,0 -0.2838757,0.05788 -0.093707,0.05788 -0.093707,0.173633 0,0.08819 0.067524,0.139182 0.067524,0.04961 0.2714734,0.09508 l 0.086816,0.01929 q 0.2700953,0.05788 0.3830943,0.163986 0.11437711,0.104731 0.11437711,0.293522 0,0.214974 -0.17087661,0.340375 -0.1694986,0.125402 -0.4671546,0.125402 -0.1240233,0 -0.259071,-0.02481 -0.1336696,-0.02343 -0.2824976,-0.07166 v -0.261827 q 0.1405598,0.07304 0.2769855,0.110243 0.1364257,0.03583 0.2700953,0.03583 0.1791448,0 0.2756074,-0.06063 0.096463,-0.06201 0.096463,-0.173633 0,-0.103352 -0.07028,-0.158474 -0.068902,-0.05512 -0.3045462,-0.106109 l -0.088194,-0.02067 q -0.2356443,-0.04961 -0.3403752,-0.151584 -0.1047308,-0.103353 -0.1047308,-0.282498 0,-0.21773 0.1543402,-0.336241 0.1543401,-0.118511 0.4382158,-0.118511 0.1405598,0 0.2645831,0.02067 0.1240234,0.02067 0.2287542,0.06201 z"
         id="path3585" />
      <path
         d="m 0.76866547,-14.704267 v 0.124023 h -1.16581943 q 0.0165364,0.261827 0.15709623,0.399631 0.14193783,0.136426 0.39411863,0.136426 0.14607194,0 0.28249762,-0.03583 0.13780371,-0.03583 0.27285135,-0.107487 v 0.239778 q -0.13642568,0.05788 -0.27974154,0.0882 -0.14331586,0.03032 -0.29076584,0.03032 -0.36931396,0 -0.58566579,-0.214974 -0.21497379,-0.214974 -0.21497379,-0.581532 0,-0.37896 0.20394949,-0.600824 0.20532754,-0.223242 0.5525929,-0.223242 0.3114364,0 0.49195927,0.201193 0.1819009,0.199816 0.1819009,0.544325 z m -0.25355884,-0.07441 q -0.002756,-0.208084 -0.11713315,-0.332107 -0.11299905,-0.124023 -0.3004121,-0.124023 -0.21221772,0 -0.34037518,0.119889 -0.12677942,0.119889 -0.14607194,0.337619 z"
         id="path3587" />
      <path
         d="m 2.4677856,-14.80073 v 0.931553 H 2.2142268 v -0.923284 q 0,-0.219108 -0.085438,-0.327973 -0.085438,-0.108865 -0.2563149,-0.108865 -0.2053275,0 -0.3238387,0.130913 -0.1185112,0.130914 -0.1185112,0.356912 v 0.872297 H 1.1751868 v -1.543401 h 0.2549369 v 0.239778 q 0.09095,-0.139181 0.2135957,-0.208083 0.1240234,-0.0689 0.2852537,-0.0689 0.2659612,0 0.4023869,0.165364 0.1364256,0.163987 0.1364256,0.483691 z"
         id="path3589" />
      <path
         d="m 3.9574441,-15.367103 v 0.239779 q -0.1074869,-0.05512 -0.2232421,-0.08268 -0.1157551,-0.02756 -0.2397784,-0.02756 -0.1887911,0 -0.2838757,0.05788 -0.093706,0.05788 -0.093706,0.173633 0,0.08819 0.067524,0.139182 0.067524,0.04961 0.2714733,0.09508 l 0.086816,0.01929 q 0.2700952,0.05788 0.3830943,0.163986 0.1143771,0.104731 0.1143771,0.293522 0,0.214974 -0.1708766,0.340375 -0.1694986,0.125402 -0.4671546,0.125402 -0.1240234,0 -0.259071,-0.02481 -0.1336696,-0.02343 -0.2824976,-0.07166 v -0.261827 q 0.1405598,0.07304 0.2769854,0.110243 0.1364257,0.03583 0.2700953,0.03583 0.1791449,0 0.2756075,-0.06063 0.096463,-0.06201 0.096463,-0.173633 0,-0.103352 -0.07028,-0.158474 -0.068902,-0.05512 -0.3045462,-0.106109 l -0.088194,-0.02067 q -0.2356444,-0.04961 -0.3403752,-0.151584 -0.1047308,-0.103353 -0.1047308,-0.282498 0,-0.21773 0.1543401,-0.336241 0.1543402,-0.118511 0.4382159,-0.118511 0.1405597,0 0.2645831,0.02067 0.1240233,0.02067 0.2287542,0.06201 z"
         id="path3591" />
      <path
         d="m 5.0419592,-15.234811 q -0.2039495,0 -0.3224607,0.159852 -0.1185112,0.158474 -0.1185112,0.43546 0,0.276985 0.1171331,0.436837 0.1185112,0.158475 0.3238388,0.158475 0.2025714,0 0.3210826,-0.159853 0.1185112,-0.159852 0.1185112,-0.435459 0,-0.27423 -0.1185112,-0.434082 -0.1185112,-0.16123 -0.3210826,-0.16123 z m 0,-0.214974 q 0.3307289,0 0.51952,0.214974 0.1887911,0.214973 0.1887911,0.595312 0,0.37896 -0.1887911,0.595312 -0.1887911,0.214974 -0.51952,0.214974 -0.332107,0 -0.5208981,-0.214974 -0.187413,-0.216352 -0.187413,-0.595312 0,-0.380339 0.187413,-0.595312 0.1887911,-0.214974 0.5208981,-0.214974 z"
         id="path3593" />
      <path
         d="m 7.064916,-15.175556 q -0.042719,-0.0248 -0.093707,-0.03583 -0.049609,-0.0124 -0.110243,-0.0124 -0.2149738,0 -0.3307289,0.14056 -0.1143771,0.139181 -0.1143771,0.401009 v 0.813041 H 6.1609236 v -1.543401 h 0.2549369 v 0.239778 q 0.079926,-0.14056 0.2080836,-0.208083 0.1281575,-0.0689 0.3114364,-0.0689 0.026183,0 0.057878,0.0041 0.031695,0.0028 0.07028,0.0096 z"
         id="path3595" />
    </g>
  </g>
  <g
     inkscape:groupmode="layer"
     id="g940"
     inkscape:label="CROP"
     style="display:inline"
     sodipodi:insensitive="true"
     transform="translate(1.0078124,1.0103228)">
    <path
       id="path938"
       style="fill:none;fill-opacity:1;stroke:#000000;stroke-width:0.377953;stroke-miterlimit:4;stroke-dasharray:none;stroke-opacity:1"
       d="m 105.28906,2.1796875 c -0.5275,0.00224 -1.05389,0.00877 -1.58008,0.019531 C 69.856354,4.5691299 36.034189,7.4074291 2.1933594,9.9589844 V 106.18945 c 25.7232946,10.57042 52.3031216,19.05527 79.7968746,23.66016 14.328918,2.21204 29.102346,3.37951 43.457036,0.01 9.29504,-2.26052 19.42312,-7.12934 22.93359,-16.67579 1.84713,-5.9826 0.64717,-12.36913 0.99219,-18.531246 -0.0849,-20.500657 0.1685,-41.012868 -0.12891,-61.50586 -0.64131,-12.154832 -9.54385,-22.664472 -20.67578,-26.9531246 -7.33337,-3.083361 -15.36678,-4.047205 -23.2793,-4.0136719 z m 8.29492,98.7285125 a 6.6141732,6.6141732 0 0 1 6.61329,6.61328 6.6141732,6.6141732 0 0 1 -6.61329,6.61524 6.6141732,6.6141732 0 0 1 -6.61523,-6.61524 6.6141732,6.6141732 0 0 1 6.61523,-6.61328 z"
       transform="matrix(0.26458333,0,0,0.26458333,-19,-40)" />
  </g>
  <g
     inkscape:groupmode="layer"
     id="layer1"
     inkscape:label="projection"
     style="display:inline;opacity:0.465263"
     sodipodi:insensitive="true"
     transform="translate(1.0078124,1.0103228)">
    <path
       d="m 21.010536,-10.910397 -0.11824,0.6257 -0.19655,0.6060011 -0.274081,0.5845 -0.350533,0.5606 -0.425601,0.5343 -0.49899,0.5051 -0.57041,0.4732 -0.63957,0.4383 -0.70622,0.4006 -0.77008,0.3603 -0.83089,0.3179 -0.88843,0.2735 -0.94246,0.2278 -0.99278,0.1811 -1.03916,0.1343 -1.08144,0.0876 -1.1194998,0.0418 -1.1531,-0.0028 -1.1822,-0.0456 -1.2065,-0.0861 -1.2262,-0.1241 -1.2409,-0.1593 -1.2509,-0.1914 -1.2558,-0.2202 -1.25580001,-0.2459 -1.25089999,-0.2682 -1.2409,-0.2873 -1.2262,-0.3032 -1.2065,-0.3159 -1.1822,-0.3255 -1.1531,-0.3323 -1.1195,-0.336 -1.0814,-0.3371 -1.0392002,-0.335301 -0.9928,-0.330799 -0.9424,-0.3236 -0.8885,-0.3138 -0.8309,-0.3012 -0.77,-0.2862011 -0.7063,-0.2684 -0.6395,-0.2482 -0.5704,-0.2255 -0.499,-0.2007 -0.4256,-0.17361 -0.3506,-0.1448 -0.274,-0.11437 -0.1966,-0.08263 -0.1182,-0.04997 -0.0395,-0.01672 v 0 -26.299999 l 26.1803002,-2.0306 0.8949,-0.0463 0.2121,-0.011 0.0752,-0.0039 0.767,-0.0025 0.3861,-0.0012 0.1827,0.0091 0.4147998,0.0208 0.522,0.0261 1.08144,0.1177 0.58511,0.1015 0.45405,0.0788 0.11477,0.0281 0.63991,0.1568 0.19253,0.0472 0.04557,0.0112 0.1763,0.0572 0.07522,0.0244 0.69094,0.2243 0.88843,0.3672 0.83089,0.4269 0.77008,0.4839 0.70622,0.5379 0.63957,0.5886 0.57041,0.6354 0.49899,0.6783 0.425601,0.7175 0.350533,0.7528 0.274081,0.7848 0.19655,0.8138 0.11824,0.8403 0.0349,0.7649 0.0046,0.1 v 18.999999 z m -8.224335,-0.86343 -0.04118,-0.21588 -0.06791,-0.20901 -0.09357,-0.198849 -0.11776,-0.18555 -0.14009,-0.16934 -0.1602,-0.15044 -0.17779,-0.12917 -0.19259,-0.10588 -0.20433,-0.0809 -0.21286,-0.05465 -0.21804,-0.02755 h -0.21978 l -0.218,0.02755 -0.2129,0.05465 -0.2043,0.0809 -0.1926,0.10588 -0.1778002,0.12917 -0.1601996,0.15044 -0.1401,0.16934 -0.1177,0.18555 -0.0936,0.198849 -0.0679,0.20901 -0.0412,0.21588 -0.0138,0.21933 0.0138,0.21933 0.0412,0.21588 0.0679,0.20899 0.0936,0.1989 0.1177,0.1855 0.1401,0.1694 0.1601996,0.1504 0.1778002,0.1292 0.1926,0.1058011 0.2043,0.0809 0.2129,0.0547 0.218,0.0275 h 0.21978 l 0.21804,-0.0275 0.21286,-0.0547 0.20433,-0.0809 0.19259,-0.1058011 0.17779,-0.1292 0.1602,-0.1504 0.14009,-0.1694 0.11776,-0.1855 0.09357,-0.1989 0.06791,-0.20899 0.04118,-0.21588 0.0138,-0.21933 z"
       stroke="#000000"
       fill="#d3d3d3"
       stroke-width="0.5"
       id="path4"
       sodipodi:nodetypes="cccccccccccccccccccccccccccccccccccccccccccccccccccccccccccccccccccccccccccccccccccccccccccccccccccccccccccccccccccccccccccccccccccccccccc"
       style="fill:#d3d3d3;fill-opacity:0.0154046;stroke-width:0.1;stroke-miterlimit:4;stroke-dasharray:0.1, 0.1;stroke-dashoffset:0" />
  </g>
</svg>
