<?xml version="1.0" standalone="no"?>
<!DOCTYPE svg PUBLIC "-//W3C//DTD SVG 1.1//EN" "http://www.w3.org/Graphics/SVG/1.1/DTD/svg11.dtd">
<svg width="36mm" height="40mm" viewBox="-19 -40 36 40" xmlns="http://www.w3.org/2000/svg" version="1.1">
<title>OpenSCAD Model</title>
<path d="
M -18.8955,-11.4844 L -18.8395,-10.3649 L -18.7218,-9.28346 L -18.5415,-8.2443 L -18.2982,-7.25152 L -17.9923,-6.30906
 L -17.6251,-5.42063 L -17.1982,-4.58974 L -16.7143,-3.81966 L -16.1764,-3.11344 L -15.5878,-2.47387 L -14.9524,-1.90346
 L -14.2741,-1.40447 L -13.5566,-0.978869 L -12.8038,-0.628336 L -12.019,-0.354255 L -11.2052,-0.157705 L -10.3649,-0.039465
 L -9.6,-0.00456286 L -9.6,-2.6 L -14.2787,-2.6 L -16.1,-4.42132 L -16.1,-40 L -16.8,-40
 L -18.8306,-13.8197 L -18.8918,-12.6375 z
M -15.318,-4 L -14.328,-3.01 L -9.5,-3.01 L -9.5,-0 L -8.85592,-0.039465 L -8.23018,-0.157705
 L -7.62418,-0.354255 L -7.03974,-0.628336 L -6.47911,-0.978869 L -5.94483,-1.40447 L -5.43967,-1.90346 L -5.01541,-2.41491
 L -5.16671,-2.50559 L -5.40318,-2.68097 L -5.62132,-2.87868 L -5.81903,-3.09682 L -5.99441,-3.33329 L -6.14576,-3.58581
 L -6.27164,-3.85195 L -6.37082,-4.12915 L -6.42614,-4.35 L -6.5,-4.35 L -6.50963,-4.54603 L -6.53843,-4.74018
 L -6.58612,-4.93057 L -6.65224,-5.11537 L -6.73616,-5.29279 L -6.83706,-5.46114 L -6.95398,-5.61879 L -7.08579,-5.76421
 L -7.23121,-5.89602 L -7.38886,-6.01294 L -7.55721,-6.11384 L -7.73463,-6.19776 L -7.91943,-6.26388 L -8.10982,-6.31157
 L -8.30397,-6.34037 L -8.49999,-6.35 L -8.6,-6.35 L -8.6,-6.44521 L -10,-6.61639 L -10,-8.1
 L -8.6,-8.275 L -8.6,-8.35 L -8.5,-8.35 L -8.5,-8.35 L -8.49999,-8.35 L -8,-8.35
 L -8,-8.35 L -8,-8.31473 L -7.71964,-8.27314 L -7.33886,-8.17776 L -6.96927,-8.04552 L -6.61441,-7.87768
 L -6.27772,-7.67588 L -5.96243,-7.44204 L -5.67157,-7.17843 L -5.40796,-6.88757 L -5.17412,-6.57228 L -4.97232,-6.23559
 L -4.80448,-5.88073 L -4.67224,-5.51114 L -4.57686,-5.13036 L -4.55752,-5 L -4.5,-5 L -4.49518,-4.90198
 L -4.48078,-4.80491 L -4.45694,-4.70972 L -4.42388,-4.61732 L -4.38192,-4.5286 L -4.33147,-4.44443 L -4.27301,-4.36561
 L -4.20711,-4.29289 L -4.13439,-4.22699 L -4.05557,-4.16853 L -3.98436,-4.12585 L -3.76728,-4.58974 L -3.44942,-5.42063
 L -3.17591,-6.30906 L -2.94813,-7.25152 L -2.76695,-8.2443 L -2.63268,-9.28346 L -2.54507,-10.3649 L -2.52139,-11
 L -3.32533,-11 L -3.32533,-10.9986 L -3.58683,-10.9886 L -3.58683,-10.9886 L -3.5873,-10.9939 L -5.79903,-10.8004
 L -7.17467,-10.68 L -7.17467,-10.65 L -7.51744,-10.65 L -7.73739,-10.6308 L -7.73901,-10.6493 L -7.73908,-10.65
 L -8.6,-10.65 L -8.6,-10.7452 L -10,-10.9164 L -10,-12.4 L -8.6,-12.575 L -8.6,-12.65
 L -8,-12.65 L -8,-12.65 L -8,-12.65 L -7.67467,-12.65 L -7.67467,-12.65 L -7.41329,-12.6628
 L -7.4127,-12.6561 L -3.82533,-12.97 L -3.82533,-13 L -3.48255,-13 L -3.26261,-13.0192 L -3.26099,-13.0007
 L -3.26092,-13 L -2.52011,-13 L -2.55171,-13.8197 L -2.63783,-15.0262 L -2.76195,-16.2524 L -2.92121,-17.4933
 L -3.11257,-18.7442 L -3.33282,-20 L -3.57872,-21.2558 L -3.84695,-22.5067 L -4.13425,-23.7476 L -4.4374,-24.9738
 L -4.75328,-26.1803 L -5.07882,-27.3625 L -5.41106,-28.5156 L -5.74711,-29.6351 L -6.08416,-30.7165 L -6.41946,-31.7557
 L -6.75027,-32.7485 L -7.07389,-33.6909 L -7.38767,-34.5794 L -7.68893,-35.4103 L -7.97506,-36.1803 L -8.24347,-36.8866
 L -8.49165,-37.5261 L -8.7172,-38.0965 L -8.91785,-38.5955 L -9.09151,-39.0211 L -9.23631,-39.3717 L -9.35068,-39.6457
 L -9.43331,-39.8423 L -9.48328,-39.9605 L -9.5,-40 L -9.9,-40 L -9.9,-25.6667 L -12.5,-17
 L -12.5,-13.4 L -11.25,-13.4 L -11.25,-13.392 L -10.01,-12.4 L -10.01,-10.9164 L -11.25,-9.94607
 L -11.25,-9.93824 L -12.5,-9.93824 L -12.5,-9.1 L -11.25,-9.1 L -11.25,-9.092 L -10.01,-8.1
 L -10.01,-6.61639 L -11.25,-5.64607 L -11.25,-5.63824 L -12.5,-5.63824 L -12.5,-4 z
M 2.50333,-11.4844 L 2.54507,-10.3649 L 2.63268,-9.28346 L 2.76695,-8.2443 L 2.94813,-7.25152 L 3.17591,-6.30906
 L 3.44942,-5.42063 L 3.76728,-4.58974 L 4.12764,-3.81966 L 4.52823,-3.11344 L 4.96651,-2.47387 L 5.43967,-1.90346
 L 5.94483,-1.40447 L 6.47911,-0.978869 L 7.03974,-0.628336 L 7.62418,-0.354255 L 8.23018,-0.157705 L 8.85592,-0.039465
 L 9.5,-0 L 10.1441,-0.039465 L 10.7698,-0.157705 L 11.3758,-0.354255 L 11.9603,-0.628336 L 12.5209,-0.978869
 L 13.0552,-1.40447 L 13.5603,-1.90346 L 14.0335,-2.47387 L 14.4718,-3.11344 L 14.8724,-3.81966 L 15.2327,-4.58974
 L 15.5506,-5.42063 L 15.8241,-6.30906 L 16.0519,-7.25152 L 16.233,-8.2443 L 16.3673,-9.28346 L 16.4549,-10.3649
 L 16.4967,-11.4844 L 16.4939,-12.6375 L 16.4483,-13.8197 L 16.3622,-15.0262 L 16.2381,-16.2524 L 16.0788,-17.4933
 L 15.8874,-18.7442 L 15.6672,-20 L 15.4213,-21.2558 L 15.1531,-22.5067 L 14.8658,-23.7476 L 14.5626,-24.9738
 L 14.2467,-26.1803 L 13.9212,-27.3625 L 13.5889,-28.5156 L 13.2529,-29.6351 L 12.9158,-30.7165 L 12.5805,-31.7557
 L 12.2497,-32.7485 L 11.9261,-33.6909 L 11.6123,-34.5794 L 11.3111,-35.4103 L 11.0249,-36.1803 L 10.7565,-36.8866
 L 10.5083,-37.5261 L 10.2828,-38.0965 L 10.0821,-38.5955 L 9.90849,-39.0211 L 9.76369,-39.3717 L 9.64932,-39.6457
 L 9.56669,-39.8423 L 9.51672,-39.9605 L 9.5,-40 L 9.5,-40 L 9.35,-40 L 9.35,-39.6441
 L 9.23631,-39.3717 L 9.09151,-39.0211 L 8.91785,-38.5955 L 8.7172,-38.0965 L 8.49165,-37.5261 L 8.24347,-36.8866
 L 7.97506,-36.1803 L 7.68893,-35.4103 L 7.38767,-34.5794 L 7.07389,-33.6909 L 6.75027,-32.7485 L 6.41946,-31.7557
 L 6.08416,-30.7165 L 5.74711,-29.6351 L 5.41106,-28.5156 L 5.07882,-27.3625 L 4.75328,-26.1803 L 4.4374,-24.9738
 L 4.13425,-23.7476 L 3.84695,-22.5067 L 3.57872,-21.2558 L 3.33282,-20 L 3.11257,-18.7442 L 2.92121,-17.4933
 L 2.76195,-16.2524 L 2.63783,-15.0262 L 2.55171,-13.8197 L 2.50614,-12.6375 z
M 7.75345,-9.89012 L 7.75345,-10.1099 L 7.781,-10.3279 L 7.83565,-10.5408 L 7.91655,-10.7451 L 8.02243,-10.9377
 L 8.1516,-11.1155 L 8.30204,-11.2757 L 8.47138,-11.4158 L 8.65693,-11.5335 L 8.85578,-11.6271 L 9.06479,-11.695
 L 9.28067,-11.7362 L 9.5,-11.75 L 9.71933,-11.7362 L 9.93521,-11.695 L 10.1442,-11.6271 L 10.3431,-11.5335
 L 10.5286,-11.4158 L 10.698,-11.2757 L 10.8484,-11.1155 L 10.9776,-10.9377 L 11.0834,-10.7451 L 11.1643,-10.5408
 L 11.219,-10.3279 L 11.2465,-10.1099 L 11.2465,-9.89012 L 11.219,-9.67208 L 11.1643,-9.45922 L 11.0834,-9.25489
 L 10.9776,-9.0623 L 10.8484,-8.88451 L 10.698,-8.72431 L 10.5286,-8.58422 L 10.3431,-8.46646 L 10.1442,-8.37289
 L 9.93521,-8.30498 L 9.71933,-8.2638 L 9.5,-8.25 L 9.28067,-8.2638 L 9.06479,-8.30498 L 8.85578,-8.37289
 L 8.65693,-8.46646 L 8.47138,-8.58422 L 8.30204,-8.72431 L 8.1516,-8.88451 L 8.02243,-9.0623 L 7.91655,-9.25489
 L 7.83565,-9.45922 L 7.781,-9.67208 z
" stroke="black" fill="lightgray" stroke-width="0.5"/>
</svg>
